<?xml version="1.0" ?><svg data-name="Layer 1" id="Layer_1" viewBox="0 0 128 128" xmlns="http://www.w3.org/2000/svg"><title/><path d="M113.51,55.49h-2.85V47.4a1,1,0,0,0-1-1H18.34a1,1,0,0,0-1,1v8.09H14.49A11.4,11.4,0,0,0,3.11,66.87v7.45A11.39,11.39,0,0,0,14.49,85.7h2.85v3.1a10.08,10.08,0,0,0,4.07,8.08H11.22a1,1,0,1,0,0,2H59.75a10.08,10.08,0,0,0,9.07-5.73,10.09,10.09,0,0,0,9.08,5.73h42.16a1,1,0,0,0,0-2H106.59a10.08,10.08,0,0,0,4.07-8.08V85.7h2.85a11.39,11.39,0,0,0,11.38-11.38V66.87A11.4,11.4,0,0,0,113.51,55.49Zm-2.85,7h2.85a4.39,4.39,0,0,1,4.38,4.38v7.45a4.39,4.39,0,0,1-4.38,4.38h-2.85ZM67.82,88.8a7.78,7.78,0,0,1-.16,1.61C63,87.25,49.76,77.76,49.07,70.18c0-.1,0-.61,0-.75L49,69c0-5.69,4.32-10.32,9.62-10.32A9.77,9.77,0,0,1,67.82,66Zm2,0V66A9.78,9.78,0,0,1,79,58.65c5.31,0,9.62,4.63,9.62,10.3,0,0,0,.62,0,.88,0,0,0,.26,0,.36C87.89,77.77,74.7,87.25,70,90.41A8.53,8.53,0,0,1,69.82,88.8ZM17.34,78.7H14.49a4.39,4.39,0,0,1-4.38-4.38V66.87a4.39,4.39,0,0,1,4.38-4.38h2.85Zm-2.85,5a9.39,9.39,0,0,1-9.38-9.38V66.87a9.39,9.39,0,0,1,9.38-9.38h2.85v3H14.49a6.38,6.38,0,0,0-6.38,6.38v7.45a6.38,6.38,0,0,0,6.38,6.38h2.85v3ZM59.75,96.88H27.41a8.08,8.08,0,0,1-8.07-8.08V48.4H67.82V61.47a11.44,11.44,0,0,0-9.2-4.82C52.22,56.65,47,62.17,47,69c0,0,0,.28,0,.54s0,.78.06.86c.78,8.59,14.62,18.5,19.9,22A8.08,8.08,0,0,1,59.75,96.88Zm48.91-8.08a8.08,8.08,0,0,1-8.07,8.08H77.9a8.08,8.08,0,0,1-7.24-4.52c5.29-3.49,19.13-13.4,19.9-22,0-.1,0-.38,0-.41,0-.3,0-1,0-1,0-6.8-5.21-12.32-11.62-12.32a11.46,11.46,0,0,0-9.2,4.82V48.4h38.84Zm14.23-14.48a9.39,9.39,0,0,1-9.38,9.38h-2.85v-3h2.85a6.38,6.38,0,0,0,6.38-6.38V66.87a6.38,6.38,0,0,0-6.38-6.38h-2.85v-3h2.85a9.39,9.39,0,0,1,9.38,9.38Z"/><path d="M86.94,32.08a5.77,5.77,0,0,0,0-8.84,1,1,0,0,0-1.3,1.53,3.75,3.75,0,0,1,0,5.78c-1.93,1.64-2.91,3.44-2.91,5.34s1,3.69,2.91,5.33a1,1,0,0,0,.65.24,1,1,0,0,0,.65-1.76,5.2,5.2,0,0,1-2.21-3.81A5.17,5.17,0,0,1,86.94,32.08Z"/><path d="M94.55,32.75a4.43,4.43,0,0,0,0-6.8,1,1,0,1,0-1.29,1.52,2.44,2.44,0,0,1,0,3.75,5.37,5.37,0,0,0-2.2,4.07,5.36,5.36,0,0,0,2.2,4.06,1,1,0,0,0,.64.24,1,1,0,0,0,.77-.36,1,1,0,0,0-.12-1.41,3.48,3.48,0,0,1-1.49-2.53A3.48,3.48,0,0,1,94.55,32.75Z"/><path d="M47.65,32.08a5.75,5.75,0,0,0,0-8.84,1,1,0,1,0-1.29,1.53,3.75,3.75,0,0,1,0,5.78c-1.94,1.64-2.91,3.44-2.91,5.34s1,3.69,2.91,5.33a1,1,0,0,0,.64.24,1,1,0,0,0,.65-1.76,5.22,5.22,0,0,1-2.2-3.81A5.18,5.18,0,0,1,47.65,32.08Z"/><path d="M38.8,32.75a4.43,4.43,0,0,0,0-6.8,1,1,0,0,0-1.41.11,1,1,0,0,0,.12,1.41,2.44,2.44,0,0,1,0,3.75,5.37,5.37,0,0,0-2.2,4.07,5.36,5.36,0,0,0,2.2,4.06,1,1,0,0,0,.64.24,1,1,0,0,0,.77-.36,1,1,0,0,0-.12-1.41,3.48,3.48,0,0,1-1.49-2.53A3.48,3.48,0,0,1,38.8,32.75Z"/><path d="M77.33,105a1,1,0,0,0,0-2H33.44a1,1,0,0,0,0,2Z"/><path d="M32.09,55.84l-7.88,7a1,1,0,0,0-.09,1.41,1,1,0,0,0,.75.34,1,1,0,0,0,.67-.26l7.88-7a1,1,0,0,0-1.33-1.5Z"/><path d="M32.09,61.12l-7.88,7a1,1,0,0,0-.09,1.41,1,1,0,0,0,.75.34,1,1,0,0,0,.67-.26l7.88-7a1,1,0,0,0-1.33-1.5Z"/><path d="M103.69,80.76a1,1,0,0,0-1.42-.08l-7.88,7a1,1,0,0,0,.67,1.75,1,1,0,0,0,.66-.25l7.88-7A1,1,0,0,0,103.69,80.76Z"/><path d="M102.33,86.46,98.39,90a1,1,0,0,0,.67,1.75,1,1,0,0,0,.66-.25l3.94-3.5a1,1,0,1,0-1.33-1.5Z"/></svg>