<?xml version="1.0" ?><svg height="32" id="svg17515" version="1.1" viewBox="0 0 32 32.000001" width="32" xmlns="http://www.w3.org/2000/svg" xmlns:cc="http://creativecommons.org/ns#" xmlns:dc="http://purl.org/dc/elements/1.1/" xmlns:inkscape="http://www.inkscape.org/namespaces/inkscape" xmlns:rdf="http://www.w3.org/1999/02/22-rdf-syntax-ns#" xmlns:sodipodi="http://sodipodi.sourceforge.net/DTD/sodipodi-0.dtd" xmlns:svg="http://www.w3.org/2000/svg"><defs id="defs17517"><clipPath clipPathUnits="userSpaceOnUse" id="clipPath32617-9-8-8-9"><circle cx="-64.623535" cy="50.047192" id="path32619-2-3-5-1" r="38.553814" style="fill:#4bb7c0;fill-opacity:1;stroke:none" transform="matrix(9.3443438,0,0,9.3443438,-627.91229,-5859.5225)"/></clipPath><clipPath clipPathUnits="userSpaceOnUse" id="clipPath19550"><circle cx="-64.623535" cy="50.047192" id="circle19552" r="38.553814" style="fill:#4bb7c0;fill-opacity:1;stroke:none" transform="matrix(9.3443438,0,0,9.3443438,-627.91229,-5859.5225)"/></clipPath></defs><g id="layer1" transform="translate(0,-1020.3622)"><g id="g41243" style="display:inline" transform="translate(690.0625,158.3017)"><path d="m -685.0625,873.56051 22,0 0,15.5 c 0,0.2857 -0.21435,0.5 -0.5,0.5 l -21,0 c -0.28565,0 -0.5,-0.2143 -0.5,-0.5 z" id="path80950-7-7-3-7" style="color:#000000;font-style:normal;font-variant:normal;font-weight:normal;font-stretch:normal;font-size:medium;line-height:normal;font-family:sans-serif;text-indent:0;text-align:start;text-decoration:none;text-decoration-line:none;text-decoration-style:solid;text-decoration-color:#000000;letter-spacing:normal;word-spacing:normal;text-transform:none;direction:ltr;writing-mode:lr-tb;baseline-shift:baseline;text-anchor:start;white-space:normal;clip-rule:nonzero;display:inline;overflow:visible;visibility:visible;opacity:1;isolation:auto;mix-blend-mode:normal;color-interpolation:sRGB;color-interpolation-filters:linearRGB;solid-color:#000000;solid-opacity:1;fill:#e1e1e6;fill-opacity:1;fill-rule:nonzero;stroke:none;stroke-width:1;stroke-linecap:round;stroke-linejoin:round;stroke-miterlimit:4;stroke-dasharray:none;stroke-dashoffset:0;stroke-opacity:1;color-rendering:auto;image-rendering:auto;shape-rendering:auto;text-rendering:auto;enable-background:accumulate"/><path d="m -684.5625,868.56051 21,0 c 0.28565,0 0.5,0.2144 0.5,0.5 l 0,4.5 -22,0 0,-4.5 c 0,-0.2856 0.21435,-0.5 0.5,-0.5 z" id="path61186-9-4-9" style="color:#000000;font-style:normal;font-variant:normal;font-weight:normal;font-stretch:normal;font-size:medium;line-height:normal;font-family:sans-serif;text-indent:0;text-align:start;text-decoration:none;text-decoration-line:none;text-decoration-style:solid;text-decoration-color:#000000;letter-spacing:normal;word-spacing:normal;text-transform:none;direction:ltr;writing-mode:lr-tb;baseline-shift:baseline;text-anchor:start;white-space:normal;clip-rule:nonzero;display:inline;overflow:visible;visibility:visible;opacity:1;isolation:auto;mix-blend-mode:normal;color-interpolation:sRGB;color-interpolation-filters:linearRGB;solid-color:#000000;solid-opacity:1;fill:#ff766c;fill-opacity:1;fill-rule:nonzero;stroke:none;stroke-width:1;stroke-linecap:round;stroke-linejoin:round;stroke-miterlimit:4;stroke-dasharray:none;stroke-dashoffset:0;stroke-opacity:1;color-rendering:auto;image-rendering:auto;shape-rendering:auto;text-rendering:auto;enable-background:accumulate"/><g id="g41231" transform="matrix(-1,0,0,1,-1348.2803,0)"><path d="m -680.87305,-151.80078 0,1.49219 a 0.50004997,0.50004997 0 1 0 1,0 l 0,-1.49219 z m 12,0 0,1.49219 a 0.50004997,0.50004997 0 1 0 1,0 l 0,-1.49219 z" id="path41212" style="color:#000000;font-style:normal;font-variant:normal;font-weight:normal;font-stretch:normal;font-size:medium;line-height:normal;font-family:sans-serif;text-indent:0;text-align:start;text-decoration:none;text-decoration-line:none;text-decoration-style:solid;text-decoration-color:#000000;letter-spacing:normal;word-spacing:normal;text-transform:none;direction:ltr;writing-mode:lr-tb;baseline-shift:baseline;text-anchor:start;white-space:normal;clip-rule:nonzero;display:inline;overflow:visible;visibility:visible;opacity:1;isolation:auto;mix-blend-mode:normal;color-interpolation:sRGB;color-interpolation-filters:linearRGB;solid-color:#000000;solid-opacity:1;fill:#ec7067;fill-opacity:1;fill-rule:evenodd;stroke:none;stroke-width:0.99999994px;stroke-linecap:round;stroke-linejoin:round;stroke-miterlimit:4;stroke-dasharray:none;stroke-dashoffset:0;stroke-opacity:1;color-rendering:auto;image-rendering:auto;shape-rendering:auto;text-rendering:auto;enable-background:accumulate" transform="translate(0,1020.3622)"/><path d="m -668.07031,866.56055 a 0.50004997,0.50004997 0 0 0 -0.49219,0.50586 l 0,2.98632 a 0.50004997,0.50004997 0 1 0 1,0 l 0,-2.98632 a 0.50004997,0.50004997 0 0 0 -0.50781,-0.50586 z" id="path39781-0" style="color:#000000;font-style:normal;font-variant:normal;font-weight:normal;font-stretch:normal;font-size:medium;line-height:normal;font-family:sans-serif;text-indent:0;text-align:start;text-decoration:none;text-decoration-line:none;text-decoration-style:solid;text-decoration-color:#000000;letter-spacing:normal;word-spacing:normal;text-transform:none;direction:ltr;writing-mode:lr-tb;baseline-shift:baseline;text-anchor:start;white-space:normal;clip-rule:nonzero;display:inline;overflow:visible;visibility:visible;opacity:1;isolation:auto;mix-blend-mode:normal;color-interpolation:sRGB;color-interpolation-filters:linearRGB;solid-color:#000000;solid-opacity:1;fill:#545773;fill-opacity:1;fill-rule:evenodd;stroke:none;stroke-width:0.99999994px;stroke-linecap:round;stroke-linejoin:round;stroke-miterlimit:4;stroke-dasharray:none;stroke-dashoffset:0;stroke-opacity:1;color-rendering:auto;image-rendering:auto;shape-rendering:auto;text-rendering:auto;enable-background:accumulate"/><path d="m -680.07031,866.56055 a 0.50004997,0.50004997 0 0 0 -0.49219,0.50586 l 0,2.98632 a 0.50004997,0.50004997 0 1 0 1,0 l 0,-2.98632 a 0.50004997,0.50004997 0 0 0 -0.50781,-0.50586 z" id="path39783-4" style="color:#000000;font-style:normal;font-variant:normal;font-weight:normal;font-stretch:normal;font-size:medium;line-height:normal;font-family:sans-serif;text-indent:0;text-align:start;text-decoration:none;text-decoration-line:none;text-decoration-style:solid;text-decoration-color:#000000;letter-spacing:normal;word-spacing:normal;text-transform:none;direction:ltr;writing-mode:lr-tb;baseline-shift:baseline;text-anchor:start;white-space:normal;clip-rule:nonzero;display:inline;overflow:visible;visibility:visible;opacity:1;isolation:auto;mix-blend-mode:normal;color-interpolation:sRGB;color-interpolation-filters:linearRGB;solid-color:#000000;solid-opacity:1;fill:#545773;fill-opacity:1;fill-rule:evenodd;stroke:none;stroke-width:0.99999994px;stroke-linecap:round;stroke-linejoin:round;stroke-miterlimit:4;stroke-dasharray:none;stroke-dashoffset:0;stroke-opacity:1;color-rendering:auto;image-rendering:auto;shape-rendering:auto;text-rendering:auto;enable-background:accumulate"/></g><path d="m -675.26399,876.68371 c -0.85832,0 -1.55306,0.6908 -1.55306,1.5421 4.8e-4,0.441 0.22472,0.8274 0.52498,1.1527 0.48138,0.5217 1.15288,1.2963 1.71611,1.9496 -0.81366,-0.1625 -1.77957,-0.3615 -2.44591,-0.5187 -0.41432,-0.098 -0.84172,-0.1007 -1.20705,0.1152 -0.70456,0.4159 -0.94132,1.3469 -0.52696,2.0808 0.41434,0.7337 1.32175,0.9918 2.02633,0.5763 -0.70457,0.4159 -0.93934,1.347 -0.52498,2.0807 0.41435,0.7341 1.32175,0.9917 2.02633,0.5763 0.31267,-0.1855 0.53824,-0.4858 0.65622,-0.8386 0.28999,-0.8665 0.59224,-1.8118 0.86303,-2.6531 0.27079,0.8413 0.57304,1.7866 0.86303,2.6531 0.11798,0.3528 0.34356,0.6531 0.65622,0.8386 0.70458,0.4154 1.61198,0.1578 2.02633,-0.5763 0.41436,-0.7337 0.17959,-1.6648 -0.52498,-2.0807 0.70458,0.4155 1.61199,0.1574 2.02633,-0.5763 0.41436,-0.7339 0.1776,-1.6649 -0.52696,-2.0808 -0.36533,-0.2155 -0.79272,-0.2126 -1.20705,-0.1152 -0.65593,0.1548 -1.61371,0.3511 -2.42205,0.5127 0.60666,-0.686 1.23052,-1.3886 1.82151,-2.0728 0.24814,-0.2873 0.39516,-0.6452 0.39572,-1.0235 0,-0.8513 -0.69473,-1.5421 -1.55305,-1.5421 -0.85832,0 -1.55505,0.6908 -1.55505,1.5421 0,-0.8513 -0.69672,-1.5421 -1.55504,-1.5421 z" id="path41233" style="opacity:1;fill:#d1d1d5;fill-opacity:1;stroke:none;stroke-width:1;stroke-linecap:round;stroke-linejoin:round;stroke-miterlimit:4;stroke-dasharray:none;stroke-dashoffset:0;stroke-opacity:1"/><path d="m -675.61754,876.68371 c -0.85832,0 -1.55306,0.6908 -1.55306,1.5421 4.8e-4,0.441 0.22472,0.8274 0.52498,1.1527 0.48138,0.5217 1.15288,1.2963 1.71611,1.9496 -0.81366,-0.1625 -1.77957,-0.3615 -2.44591,-0.5187 -0.41432,-0.098 -0.84172,-0.1007 -1.20705,0.1152 -0.70456,0.4159 -0.94132,1.3469 -0.52696,2.0808 0.41434,0.7337 1.32175,0.9918 2.02633,0.5763 -0.70457,0.4159 -0.93934,1.347 -0.52498,2.0807 0.41435,0.7341 1.32175,0.9917 2.02633,0.5763 0.31267,-0.1855 0.53824,-0.4858 0.65622,-0.8386 0.28999,-0.8665 0.59224,-1.8118 0.86303,-2.6531 0.27079,0.8413 0.57304,1.7866 0.86303,2.6531 0.11798,0.3528 0.34356,0.6531 0.65622,0.8386 0.70458,0.4154 1.61198,0.1578 2.02633,-0.5763 0.41436,-0.7337 0.17959,-1.6648 -0.52498,-2.0807 0.70458,0.4155 1.61199,0.1574 2.02633,-0.5763 0.41436,-0.7339 0.1776,-1.6649 -0.52696,-2.0808 -0.36533,-0.2155 -0.79272,-0.2126 -1.20705,-0.1152 -0.65593,0.1548 -1.61371,0.3511 -2.42205,0.5127 0.60666,-0.686 1.23052,-1.3886 1.82151,-2.0728 0.24814,-0.2873 0.39516,-0.6452 0.39572,-1.0235 0,-0.8513 -0.69473,-1.5421 -1.55305,-1.5421 -0.85832,0 -1.55505,0.6908 -1.55505,1.5421 0,-0.8513 -0.69672,-1.5421 -1.55504,-1.5421 z" id="path21036-4-3-0-9-6" style="opacity:1;fill:#88b03c;fill-opacity:1;stroke:none;stroke-width:1;stroke-linecap:round;stroke-linejoin:round;stroke-miterlimit:4;stroke-dasharray:none;stroke-dashoffset:0;stroke-opacity:1"/></g></g></svg>