<?xml version="1.0" ?><!DOCTYPE svg  PUBLIC '-//W3C//DTD SVG 1.1//EN'  'http://www.w3.org/Graphics/SVG/1.1/DTD/svg11.dtd'><svg enable-background="new 0 0 38.984 36.2" height="36.2px" id="Layer_1" version="1.1" viewBox="0 0 38.984 36.2" width="38.984px" xml:space="preserve" xmlns="http://www.w3.org/2000/svg" xmlns:xlink="http://www.w3.org/1999/xlink"><g><g><g><path d="M4.032,31.983H0.997c-0.387,0-0.711-0.295-0.747-0.68c-0.68-7.282,0.021-14.081,2.142-20.785     c0.099-0.312,0.388-0.524,0.715-0.524H15.27c0.399,0,0.729,0.313,0.749,0.712l0.378,7.583c0.021,0.414-0.298,0.766-0.712,0.786     c-0.43,0.022-0.765-0.299-0.786-0.712l-0.342-6.87H3.659c-1.868,6.131-2.516,12.356-1.975,18.989h2.348     c0.414,0,0.75,0.336,0.75,0.75S4.446,31.983,4.032,31.983z"/></g></g><g><g><path d="M38.234,31.66h-3.227c-0.414,0-0.75-0.336-0.75-0.75s0.336-0.75,0.75-0.75h2.477v-8.591     c-0.91-0.227-1.807-0.484-2.68-0.734c-2.281-0.654-4.437-1.271-6.594-1.325c-6.296-0.155-12.713-0.032-18.919,0.086     c-2.503,0.048-5.006,0.096-7.508,0.126c-0.003,0-0.006,0-0.009,0c-0.41,0-0.745-0.33-0.75-0.741     c-0.005-0.414,0.327-0.754,0.741-0.759c2.499-0.031,4.999-0.079,7.498-0.126c6.223-0.119,12.657-0.241,18.985-0.086     c2.349,0.058,4.698,0.731,6.97,1.383c1.04,0.298,2.115,0.606,3.187,0.855c0.34,0.079,0.58,0.382,0.58,0.73v9.932     C38.984,31.324,38.648,31.66,38.234,31.66z"/></g></g><g><g><path d="M28.233,19.077c-0.269,0-0.529-0.145-0.663-0.398l-4.373-8.244l-8.083,1.212c-0.409,0.061-0.792-0.221-0.853-0.63     s0.221-0.792,0.63-0.853L23.5,8.873c0.313-0.043,0.625,0.109,0.773,0.39l4.621,8.712c0.194,0.366,0.056,0.82-0.311,1.014     C28.472,19.049,28.352,19.077,28.233,19.077z"/></g></g><g><g><path d="M20.811,8.106c-0.414,0-0.75-0.336-0.75-0.75V2.414l-6.89-0.819v5.762c0,0.414-0.336,0.75-0.75,0.75     s-0.75-0.336-0.75-0.75V0.75c0-0.214,0.092-0.418,0.252-0.561c0.161-0.142,0.376-0.209,0.586-0.184l8.39,0.998     c0.377,0.045,0.661,0.365,0.661,0.745v5.609C21.561,7.771,21.225,8.106,20.811,8.106z"/></g></g><g><g><path d="M8.178,36.2c-1.2,0-2.287-0.342-3.156-1.026c-1.458-1.147-2.029-3.019-1.527-5.005c0.525-2.072,1.914-4.361,4.237-4.571     c2.472-0.218,3.84,1.542,5.047,3.101c0.465,0.6,0.909,1.172,1.397,1.632c0.01,0.009,0.02,0.018,0.029,0.027     c0.046,0.043,0.093,0.085,0.14,0.125h11.627c0.414,0,0.75,0.336,0.75,0.75s-0.336,0.75-0.75,0.75H14.475     c-0.198,1.354-1.222,2.54-2.386,3.152C10.741,35.845,9.4,36.2,8.178,36.2z M8.134,27.08c-0.087,0-0.176,0.004-0.267,0.012     c-1.992,0.18-2.781,2.901-2.918,3.444c-0.353,1.395,0.021,2.688,1,3.459c1.276,1.004,3.31,0.935,5.442-0.187     c0.787-0.414,1.755-1.451,1.6-2.538c-0.51-0.508-0.959-1.087-1.397-1.652C10.542,28.261,9.626,27.08,8.134,27.08z"/></g></g><g><g><path d="M29.907,35.888c-1.564,0-3.348-0.34-3.957-2.534c-0.301-1.083-1.217-4.377,2.268-6.05     c1.673-0.803,4.124-1.584,6.064,0.907c0.41,0.525,0.626,1.135,0.835,1.725c0.082,0.23,0.163,0.46,0.257,0.68     c0.064,0.149,0.076,0.309,0.043,0.456c0.031,0.143,0.021,0.297-0.037,0.443c-0.078,0.194-0.154,0.392-0.229,0.589     c-0.612,1.602-1.374,3.595-3.974,3.736L31,35.849C30.663,35.868,30.291,35.888,29.907,35.888z M31.078,28.023     c-0.617,0-1.336,0.213-2.212,0.634c-1.648,0.792-2.088,2.076-1.471,4.296c0.394,1.415,1.43,1.514,3.521,1.398l0.179-0.01     c1.549-0.084,2.018-1.108,2.653-2.773c0.063-0.165,0.127-0.331,0.191-0.494c-0.084-0.208-0.16-0.422-0.236-0.637     c-0.177-0.499-0.344-0.97-0.604-1.304C32.519,28.388,31.886,28.023,31.078,28.023z"/></g></g><g><g><path d="M5.323,8.106c-0.414,0-0.75-0.336-0.75-0.75V3.7c0-0.39,0.299-0.715,0.688-0.748l6.453-0.539     c0.42-0.022,0.776,0.272,0.81,0.685s-0.272,0.775-0.685,0.81L6.073,4.39v2.966C6.073,7.771,5.737,8.106,5.323,8.106z"/></g></g><g><g><path d="M21.021,8.758c-0.397,0-0.794-0.002-1.191-0.009C15.17,8.67,10.511,8.586,5.852,8.502L1.76,8.429     C1.346,8.422,1.017,8.08,1.024,7.666c0.008-0.414,0.353-0.718,0.764-0.736l4.091,0.074c4.659,0.084,9.317,0.168,13.977,0.247     c0.729,0.013,1.457,0.009,2.186,0.006l1.028-0.003c0.414,0,0.75,0.336,0.75,0.75s-0.336,0.75-0.75,0.75l-1.021,0.003     C21.706,8.757,21.364,8.758,21.021,8.758z"/></g></g></g></svg>